# xmcd
#
# Track frame offsets: 
#        150
#        12745
#        27669
#        40741
#        53715
#        67079
#        79606
#        94083
#        109091
#        122808
#        138385
#        149120
#        164196
#        179302
#        192362
#        207325
#        221703
#        236049
#
# Disc length: 3324 seconds
#
# Revision: 8
# Processed by: cddbd v1.5.1PL0 Copyright (c) Steve Scherf et al.
# Submitted via: ExactAudioCopy v0.90b4
#
DISCID=1d0cfa12
DTITLE=Johnny Cash - The Mercury Years
DYEAR=2002
DGENRE=Country
TTITLE0=Sixteen Tons
TTITLE1=Cat's In The Cradle
TTITLE2=Wanted Man
TTITLE3=That Old Wheel with Hank Williams Jr.
TTITLE4=Sweeter Than The Flowers with Waylon Jennings
TTITLE5=W Lee O'Daniel with The Light Crust Dough Boys
TTITLE6=I'll Go Somewhere And Sing My Songs Again with Tom T. Hall
TTITLE7=Beans For Breakfast
TTITLE8=As Long As I Live with Emmylou Harris
TTITLE9=Call Me The Breeze with John Carter Cash
TTITLE10=Supper Time
TTITLE11=Letter From Home
TTITLE12=A Backstage Pass
TTITLE13=I Love You, Love You
TTITLE14=Goin' By The Book
TTITLE15=I'd Rather Have You
TTITLE16=Monteagle Mountain
TTITLE17=Don't Take Your Guns To Town
EXTD=Spectrum\n544 3262
EXTT0=
EXTT1=
EXTT2=
EXTT3=
EXTT4=
EXTT5=
EXTT6=
EXTT7=
EXTT8=
EXTT9=
EXTT10=
EXTT11=
EXTT12=
EXTT13=
EXTT14=
EXTT15=
EXTT16=
EXTT17=
PLAYORDER=
